<svg xmlns="http://www.w3.org/2000/svg" width="467.277" height="82.902" viewBox="0 0 467.277 82.902">
  <g id="그룹_70" data-name="그룹 70" transform="translate(-402.861 -222)">
    <g id="그룹_10" data-name="그룹 10" transform="translate(-7.268 64.251)">
      <g id="그룹_7" data-name="그룹 7">
        <ellipse id="타원_5" data-name="타원 5" cx="18.903" cy="28.176" rx="18.903" ry="28.176" transform="translate(410.129 157.749)"/>
        <ellipse id="타원_6" data-name="타원 6" cx="11.071" cy="7.907" rx="11.071" ry="7.907" transform="translate(421.164 204.058) rotate(-60)" fill="#fff"/>
      </g>
      <g id="그룹_8" data-name="그룹 8">
        <ellipse id="타원_7" data-name="타원 7" cx="18.903" cy="28.176" rx="18.903" ry="28.176" transform="translate(458.879 157.749)"/>
        <ellipse id="타원_8" data-name="타원 8" cx="11.071" cy="7.907" rx="11.071" ry="7.907" transform="translate(469.913 204.058) rotate(-60)" fill="#fff"/>
      </g>
      <g id="그룹_9" data-name="그룹 9">
        <path id="패스_3" data-name="패스 3" d="M451.65,218.453c-2.463,2.509-5,3.626-7.546,3.323l-.118-.017v10.806H444c-.007.14-.012.28-.012.422a7.665,7.665,0,0,0,15.329,0c0-.142-.005-.282-.012-.422h.012V221.759l-.118.017C456.647,222.079,454.114,220.962,451.65,218.453Z" fill="#f90000"/>
        <path id="패스_4" data-name="패스 4" d="M466.562,214.634l-1.17-.532c-.037.081-2.635,5.645-6.506,6.1-2.146.253-4.425-1.144-6.784-4.154l-.452-.575-.451.575c-2.359,3.01-4.638,4.407-6.784,4.154-3.871-.458-6.469-6.022-6.507-6.1l-1.169.532-1.17.531c.129.284,3.219,6.955,8.535,7.591,2.55.3,5.083-.814,7.546-3.323,2.464,2.509,5,3.626,7.547,3.323,5.316-.636,8.406-7.307,8.535-7.591Z"/>
      </g>
    </g>
    <g id="그룹_11" data-name="그룹 11" transform="translate(-1277.132 2030.908)">
      <path id="패스_5" data-name="패스 5" d="M2034.3-1716.062a1.343,1.343,0,0,0-1.178,0,1.168,1.168,0,0,0-.679,1q-.363,4.531-3.714,6.433a1.161,1.161,0,0,0-.589,1.042,1.345,1.345,0,0,0,.589,1,.992.992,0,0,0,1.177.045q4.438-2.535,4.892-8.516A.867.867,0,0,0,2034.3-1716.062Z" transform="translate(-106.74 -37.02)" fill="#fff"/>
      <path id="패스_6" data-name="패스 6" d="M2048.687-1739.669c-.756,0-1.132.394-1.132,1.177s.376,1.178,1.132,1.178,1.133-.392,1.133-1.178S2049.442-1739.669,2048.687-1739.669Z" transform="translate(-115.326 -26.64)" fill="#fff"/>
      <ellipse id="타원_9" data-name="타원 9" cx="1.132" cy="1.178" rx="1.132" ry="1.178" transform="translate(1882.13 -1770.205)" fill="#fff"/>
      <path id="패스_7" data-name="패스 7" d="M1899.722-1726.512a.566.566,0,0,0-.5.271,4.632,4.632,0,0,1-4.62,2.809.526.526,0,0,0-.454.317.6.6,0,0,0,0,.634c.121.213.272.287.454.226a5.816,5.816,0,0,0,5.708-3.352.769.769,0,0,0-.091-.634A.569.569,0,0,0,1899.722-1726.512Z" transform="translate(-47.443 -32.459)" fill="#fff"/>
      <path id="패스_8" data-name="패스 8" d="M2058.507-1758.115a1.193,1.193,0,0,0-.589-1,1.2,1.2,0,0,0-1.224-.135,11.879,11.879,0,0,0-7.067,7.973,1.112,1.112,0,0,0,.318,1.178,1.218,1.218,0,0,0,1.133.317,1.049,1.049,0,0,0,.815-.861,9.7,9.7,0,0,1,5.979-6.523A1.078,1.078,0,0,0,2058.507-1758.115Z" transform="translate(-116.221 -17.934)" fill="#fff"/>
      <path id="패스_9" data-name="패스 9" d="M2162.308-1755.1a1.483,1.483,0,0,0-1.088.453,1.485,1.485,0,0,0-.453,1.087,1.48,1.48,0,0,0,.453,1.087,1.48,1.48,0,0,0,1.088.453,1.482,1.482,0,0,0,1.087-.453,1.483,1.483,0,0,0,.453-1.087,1.488,1.488,0,0,0-.453-1.087A1.486,1.486,0,0,0,2162.308-1755.1Z" transform="translate(-165.393 -19.816)" fill="#fff"/>
      <path id="패스_10" data-name="패스 10" d="M2091.419-1706.152a1.047,1.047,0,0,0-.815.861,9.216,9.216,0,0,1-4.893,5.889,1.077,1.077,0,0,0-.635.951,1.186,1.186,0,0,0,.589,1,1.067,1.067,0,0,0,1.223.045,10.809,10.809,0,0,0,5.979-7.248,1.116,1.116,0,0,0-.317-1.178A1.223,1.223,0,0,0,2091.419-1706.152Z" transform="translate(-131.919 -41.449)" fill="#fff"/>
      <path id="패스_11" data-name="패스 11" d="M1970.677-1771.06a1.16,1.16,0,0,0-1.132.272,31.373,31.373,0,0,0-7.519,9.513,1.169,1.169,0,0,0,.09,1.178,1.1,1.1,0,0,0,.952.543,1.332,1.332,0,0,0,1.041-.543,29.744,29.744,0,0,1,7.067-9.06.91.91,0,0,0,.317-1.087A1.231,1.231,0,0,0,1970.677-1771.06Z" transform="translate(-77.449 -12.735)" fill="#fff"/>
      <path id="패스_12" data-name="패스 12" d="M1798.418-1765.008a1.506,1.506,0,0,0-1.041.408,1.285,1.285,0,0,0-.453,1,1.425,1.425,0,0,0,.453,1.042,1.425,1.425,0,0,0,1.041.453,1.288,1.288,0,0,0,1-.453,1.511,1.511,0,0,0,.408-1.042,1.355,1.355,0,0,0-.408-1A1.355,1.355,0,0,0,1798.418-1765.008Z" transform="translate(-4.486 -15.434)" fill="#fff"/>
      <path id="패스_13" data-name="패스 13" d="M1836.263-1705.373a5.442,5.442,0,0,1-4.53-.181.866.866,0,0,0-1.269.589.9.9,0,0,0,.544,1.314,9.266,9.266,0,0,0,3.443.725,6,6,0,0,0,2.718-.634,6.578,6.578,0,0,0,3.533-4.349.9.9,0,0,0-.635-1.268q-.906-.272-1.177.725A5.456,5.456,0,0,1,1836.263-1705.373Z" transform="translate(-19.273 -40.099)" fill="#fff"/>
      <path id="패스_14" data-name="패스 14" d="M2170.348-1781.147a1.18,1.18,0,0,0-1.9.226,5.468,5.468,0,0,0-.635.815q-.362.544-1.268,1.857t-1.631,2.627q-.726,1.315-1.45,2.99a20.246,20.246,0,0,0-1.087,3.126,1.437,1.437,0,0,0,.226,1.042,1.227,1.227,0,0,0,.861.589.692.692,0,0,0,.272.09,1.241,1.241,0,0,0,1.358-1.178q.905-4.529,5.436-10.238A1.205,1.205,0,0,0,2170.348-1781.147Z" transform="translate(-166.095 -8.129)" fill="#fff"/>
      <path id="패스_15" data-name="패스 15" d="M1878.927-1761.039a1.034,1.034,0,0,0-1.449-.362,27.138,27.138,0,0,0-6.976,4.575,10.947,10.947,0,0,0-3.262,6.387q-.183,1.178,1.087,1.449,1.087.183,1.269-.815a8.423,8.423,0,0,1,.815-2.809,10.769,10.769,0,0,1,1.4-2.174,11.937,11.937,0,0,1,1.994-1.812,17.41,17.41,0,0,1,2.265-1.45q1.04-.543,2.582-1.268Q1879.832-1759.95,1878.927-1761.039Z" transform="translate(-35.573 -16.958)" fill="#fff"/>
      <path id="패스_16" data-name="패스 16" d="M1867.625-1736.745a1.041,1.041,0,0,0-1.177,1.177,1.04,1.04,0,0,0,1.177,1.178,1.041,1.041,0,0,0,1.177-1.178A1.041,1.041,0,0,0,1867.625-1736.745Z" transform="translate(-35.232 -27.933)" fill="#fff"/>
      <path id="패스_17" data-name="패스 17" d="M1812.966-1791.178a1.4,1.4,0,0,0-1.042-.045q-.5.182-1.314.5a22.247,22.247,0,0,0-2.673,1.4,26,26,0,0,0-3.4,2.355,17.65,17.65,0,0,0-2.99,3.262,10.854,10.854,0,0,0-1.9,4.077,1.653,1.653,0,0,0,0,.77,1.355,1.355,0,0,0,.363.589,1.338,1.338,0,0,0,.634.362h.363a1.163,1.163,0,0,0,1.268-1.087,9.767,9.767,0,0,1,1.721-3.4,14.94,14.94,0,0,1,2.582-2.718,21.719,21.719,0,0,1,2.944-1.948,24.272,24.272,0,0,1,2.31-1.177c.453-.181.8-.331,1.042-.453a1.234,1.234,0,0,0,.77-.68,1.386,1.386,0,0,0,.045-1.041A1.228,1.228,0,0,0,1812.966-1791.178Z" transform="translate(-5.671 -3.805)" fill="#fff"/>
      <path id="패스_18" data-name="패스 18" d="M2377.622-1761.379a1.265,1.265,0,0,0-1.133.317,11.018,11.018,0,0,0-2.536,8.969,1.265,1.265,0,0,0,.724,1.042,1.167,1.167,0,0,0,1.178,0,.958.958,0,0,0,.452-1.042q-.543-4.529,1.9-7.248a1.208,1.208,0,0,0,.227-1.223A1.117,1.117,0,0,0,2377.622-1761.379Z" transform="translate(-259.626 -17.026)" fill="#fff"/>
      <path id="패스_19" data-name="패스 19" d="M2375.656-1740.968q-1.134,0-1.132,1.223t1.132,1.223q1.132,0,1.132-1.223T2375.656-1740.968Z" transform="translate(-259.925 -26.066)" fill="#fff"/>
      <path id="패스_20" data-name="패스 20" d="M2397.078-1698.074a1.345,1.345,0,0,0-.589.861,4.573,4.573,0,0,1-2.174,3.442q-.907.455-.544,1.722.181.725.815.453,2.535-1.268,3.262-5.255a1.276,1.276,0,0,0-.091-1.087A.474.474,0,0,0,2397.078-1698.074Z" transform="translate(-268.391 -44.997)" fill="#fff"/>
      <path id="패스_21" data-name="패스 21" d="M2280.688-1695.246a1.164,1.164,0,0,0-1.042.589,2.954,2.954,0,0,1-2.718,1.54,1.091,1.091,0,0,0-1.042.589,1.168,1.168,0,0,0,0,1.178,1.09,1.09,0,0,0,1.042.589,5.285,5.285,0,0,0,4.711-2.718,1.051,1.051,0,0,0,0-1.178A1.224,1.224,0,0,0,2280.688-1695.246Z" transform="translate(-216.233 -46.284)" fill="#fff"/>
      <path id="패스_22" data-name="패스 22" d="M2358.939-1706.152a1.047,1.047,0,0,0-.815.861,9.215,9.215,0,0,1-4.892,5.889,1.078,1.078,0,0,0-.635.951,1.186,1.186,0,0,0,.59,1,1.066,1.066,0,0,0,1.223.045,10.811,10.811,0,0,0,5.979-7.248,1.116,1.116,0,0,0-.317-1.178A1.223,1.223,0,0,0,2358.939-1706.152Z" transform="translate(-250.228 -41.449)" fill="#fff"/>
      <path id="패스_23" data-name="패스 23" d="M2326.027-1758.115a1.193,1.193,0,0,0-.589-1,1.2,1.2,0,0,0-1.223-.135,11.875,11.875,0,0,0-7.067,7.973,1.112,1.112,0,0,0,.317,1.178,1.22,1.22,0,0,0,1.133.317,1.049,1.049,0,0,0,.815-.861,9.7,9.7,0,0,1,5.979-6.523A1.077,1.077,0,0,0,2326.027-1758.115Z" transform="translate(-234.529 -17.934)" fill="#fff"/>
      <path id="패스_24" data-name="패스 24" d="M2316.208-1739.669c-.756,0-1.132.394-1.132,1.177s.376,1.178,1.132,1.178,1.132-.392,1.132-1.178S2316.962-1739.669,2316.208-1739.669Z" transform="translate(-233.634 -26.64)" fill="#fff"/>
      <path id="패스_25" data-name="패스 25" d="M2205-1745.2c-.6-.059-.937.181-1,.725a5.79,5.79,0,0,1-1.993,3.533q-1.9,1.36-5.255.634a.818.818,0,0,0-1.087.725.816.816,0,0,0,.725,1.087,11.662,11.662,0,0,0,2.446.271,6.977,6.977,0,0,0,4.259-1.268,6.994,6.994,0,0,0,2.718-4.711A.806.806,0,0,0,2205-1745.2Z" transform="translate(-180.813 -24.191)" fill="#fff"/>
      <path id="패스_26" data-name="패스 26" d="M2253.836-1746.816c-.756,0-1.132.394-1.132,1.177s.376,1.178,1.132,1.178,1.132-.392,1.132-1.178S2254.59-1746.816,2253.836-1746.816Z" transform="translate(-206.051 -23.479)" fill="#fff"/>
      <path id="패스_27" data-name="패스 27" d="M2253.3-1767.77a1.371,1.371,0,0,0-1.087.543,11.479,11.479,0,0,0-1.631,9.694,1.058,1.058,0,0,0,.86.861,1.178,1.178,0,0,0,1.133-.318,1.158,1.158,0,0,0,.272-1.177,9.362,9.362,0,0,1,1.359-7.882.966.966,0,0,0,.091-1.178A1.141,1.141,0,0,0,2253.3-1767.77Z" transform="translate(-204.924 -14.213)" fill="#fff"/>
      <path id="패스_28" data-name="패스 28" d="M1828.948-1779.979a11.293,11.293,0,0,0,1.676-4.168,6.771,6.771,0,0,0-.362-3.669,9.3,9.3,0,0,0-2.084-3.08,14.78,14.78,0,0,0-3.4-2.492,22,22,0,0,0-7.882-2.537,24.1,24.1,0,0,0-10.736.815,20.065,20.065,0,0,0-8.924,5.346q-5.8,6.07-8.607,16.715t-1.359,19.162q.544,3.443,1.042,5.526a31.325,31.325,0,0,0,1.721,4.937,18.38,18.38,0,0,0,2.854,4.757,12.685,12.685,0,0,0,5.435,3.578,18.035,18.035,0,0,0,6.478,1.042,49.639,49.639,0,0,0,6.568-.634q5.889-1.176,8.879-3.624a12.077,12.077,0,0,0,3.9-6.931,17.523,17.523,0,0,0,.09-8.471,9.39,9.39,0,0,0-2.129-3.669,5.762,5.762,0,0,0-3.4-2.039,9.505,9.505,0,0,0-5.346.815,24.61,24.61,0,0,1-4.349,1.45,2.782,2.782,0,0,1-2.672-1.495,7.369,7.369,0,0,1-1.314-3.307,14.546,14.546,0,0,1,1.631-7.882,24.491,24.491,0,0,1,1.223-2.31q.679-1.131,1.585-2.446a12.818,12.818,0,0,1,1.9-2.219,14.711,14.711,0,0,1,2.265-1.676,5.657,5.657,0,0,1,2.537-.861,8.024,8.024,0,0,1,2.808.362,1.541,1.541,0,0,1,.453.091,24.868,24.868,0,0,0,2.672.861,17.849,17.849,0,0,0,2.4.363,4.353,4.353,0,0,0,2.537-.453A5.279,5.279,0,0,0,1828.948-1779.979Zm-9.331,33.068q.272-1,1.177-.725a.9.9,0,0,1,.635,1.268,6.579,6.579,0,0,1-3.533,4.349,6,6,0,0,1-2.718.634,9.266,9.266,0,0,1-3.443-.725.9.9,0,0,1-.544-1.314.866.866,0,0,1,1.269-.589,5.442,5.442,0,0,0,4.53.181A5.457,5.457,0,0,0,1819.617-1746.91Zm-8.29-4.167a3.492,3.492,0,0,1,1.4-1.4,4.074,4.074,0,0,1,1.993-.5,3.658,3.658,0,0,1,2.673,1.132,3.763,3.763,0,0,1,1.133,2.763,3.9,3.9,0,0,1-.5,1.9,3.494,3.494,0,0,1-1.4,1.4,3.892,3.892,0,0,1-1.9.5,3.756,3.756,0,0,1-2.763-1.133,3.65,3.65,0,0,1-1.132-2.673A4.064,4.064,0,0,1,1811.327-1751.078Zm-16.4-25.277a1.288,1.288,0,0,1-1,.453,1.425,1.425,0,0,1-1.041-.453,1.425,1.425,0,0,1-.453-1.042,1.285,1.285,0,0,1,.453-1,1.506,1.506,0,0,1,1.041-.408,1.355,1.355,0,0,1,1,.408,1.355,1.355,0,0,1,.408,1A1.51,1.51,0,0,1,1794.929-1776.355Zm13.047-15.175a1.234,1.234,0,0,1-.77.68c-.243.122-.589.272-1.042.453a24.244,24.244,0,0,0-2.31,1.177,21.709,21.709,0,0,0-2.945,1.948,14.939,14.939,0,0,0-2.582,2.718,9.768,9.768,0,0,0-1.721,3.4,1.163,1.163,0,0,1-1.268,1.087h-.363a1.338,1.338,0,0,1-.634-.362,1.353,1.353,0,0,1-.363-.589,1.65,1.65,0,0,1,0-.77,10.855,10.855,0,0,1,1.9-4.077,17.659,17.659,0,0,1,2.99-3.262,26.013,26.013,0,0,1,3.4-2.355,22.259,22.259,0,0,1,2.673-1.4q.816-.316,1.314-.5a1.4,1.4,0,0,1,1.042.045,1.227,1.227,0,0,1,.725.77A1.387,1.387,0,0,1,1807.975-1791.53Z" transform="translate(0 -1.642)"/>
      <path id="패스_29" data-name="패스 29" d="M1893.051-1763.184a4.912,4.912,0,0,1-.906-.544q-.816-.543-1.722-1.177a5.961,5.961,0,0,0-1-.634,20.662,20.662,0,0,0-9.513-2.718,16.663,16.663,0,0,0-8.426,2.446,20.039,20.039,0,0,0-6.432,6.206,35.186,35.186,0,0,0-4.032,8.38,27.59,27.59,0,0,0-1.4,9.241,22.515,22.515,0,0,0,1.721,8.516,16.475,16.475,0,0,0,3.488,4.983,13.51,13.51,0,0,0,4.847,3.352l1.087.362a15.813,15.813,0,0,0,3.08.589,38.059,38.059,0,0,0,4.3.226,17.572,17.572,0,0,0,5.119-.861,18.5,18.5,0,0,0,5.255-2.582l.725.724a11.335,11.335,0,0,0,1.812,1.4,23.847,23.847,0,0,0,2.672,1.495,6.823,6.823,0,0,0,3.216.679,7.876,7.876,0,0,0,3.352-.861,8.988,8.988,0,0,0,3.217-3.216,24.432,24.432,0,0,0,2.763-6.206q3.442-12.955,2.808-22.377Q1907.816-1771.608,1893.051-1763.184Zm-28.448,14.858a1.04,1.04,0,0,1-1.177-1.178,1.041,1.041,0,0,1,1.177-1.177,1.041,1.041,0,0,1,1.177,1.177A1.041,1.041,0,0,1,1864.6-1748.325Zm8.109-12.684a17.415,17.415,0,0,0-2.265,1.45,11.935,11.935,0,0,0-1.993,1.812,10.779,10.779,0,0,0-1.4,2.174,8.425,8.425,0,0,0-.815,2.809c-.122.665-.544.937-1.269.815q-1.269-.271-1.087-1.449a10.947,10.947,0,0,1,3.262-6.387,27.134,27.134,0,0,1,6.976-4.575,1.034,1.034,0,0,1,1.449.362q.9,1.088-.272,1.721Q1873.751-1761.552,1872.711-1761.01Zm3.76,17.939a4.654,4.654,0,0,1-1.857-1.812,4.994,4.994,0,0,1-.679-2.537,4.74,4.74,0,0,1,1.495-3.533,4.914,4.914,0,0,1,3.533-1.45,4.912,4.912,0,0,1,3.533,1.45,4.739,4.739,0,0,1,1.5,3.533,4.733,4.733,0,0,1-1.5,3.533,4.852,4.852,0,0,1-3.488,1.449A5.261,5.261,0,0,1,1876.471-1743.071Zm8.607-1a5.816,5.816,0,0,1-5.708,3.352c-.182.061-.333-.014-.453-.226a.6.6,0,0,1,0-.634.525.525,0,0,1,.453-.317,4.632,4.632,0,0,0,4.621-2.809.566.566,0,0,1,.5-.272.569.569,0,0,1,.5.272A.768.768,0,0,1,1885.078-1744.068Z" transform="translate(-32.211 -13.997)"/>
      <path id="패스_30" data-name="패스 30" d="M1997.8-1760.761a20.977,20.977,0,0,0-1.268-3.08,25.291,25.291,0,0,0-2.084-3.4,23.1,23.1,0,0,0-2.673-3.126,10.5,10.5,0,0,0-3.216-2.129,7.309,7.309,0,0,0-3.624-.589q-4.441.454-7.973,6.433.18-.453-.952-1.994a14.414,14.414,0,0,0-1.858-2.174q-3.8-3.714-8.425-2.537a11.283,11.283,0,0,0-4.711,2.808q-4.893,4.712-7.61,13.59a54.582,54.582,0,0,0-2.174,14.677v.634c0,.484.014,1.1.045,1.857s.1,1.6.226,2.537a17.235,17.235,0,0,0,.589,2.764,15.7,15.7,0,0,0,1,2.536,5.543,5.543,0,0,0,1.586,1.948,4.091,4.091,0,0,0,2.265.861l.453.09a4.93,4.93,0,0,0,1.223.046,11.019,11.019,0,0,0,1.631-.226,4.289,4.289,0,0,0,1.766-.906,9.394,9.394,0,0,0,1.676-1.766,9.287,9.287,0,0,0,1.314-2.944,18.324,18.324,0,0,0,.634-4.349q.181-4.893,2.447-5.164a2.7,2.7,0,0,1,3.08,1.4,9.686,9.686,0,0,1,1.178,4.031l.453,1.993a13.5,13.5,0,0,0,1.631,3.85q1.176,1.949,2.628,1.948h.543a2.811,2.811,0,0,0,1.178-.363,6.2,6.2,0,0,0,1.45-1.041,6.373,6.373,0,0,0,1.359-2.31,12.419,12.419,0,0,0,.725-3.986q.361-3.895,2.265-4.711a1.915,1.915,0,0,1,2.129.181,3.953,3.953,0,0,1,1.223,1.9,6,6,0,0,1,.271,2.265,10.349,10.349,0,0,0,1.812,6.3,5.363,5.363,0,0,0,5.345,2.4,6.143,6.143,0,0,0,3.851-2.13,10.209,10.209,0,0,0,2.31-4.122q1.087-3.714-.091-9.694A114.064,114.064,0,0,0,1997.8-1760.761Zm-41.811,4.53q-1.133,0-1.132-1.178t1.132-1.178q1.132,0,1.132,1.178T1955.991-1756.231Zm10.464-14.043a29.741,29.741,0,0,0-7.067,9.06,1.333,1.333,0,0,1-1.042.543,1.1,1.1,0,0,1-.951-.543,1.168,1.168,0,0,1-.09-1.178,31.372,31.372,0,0,1,7.519-9.513,1.16,1.16,0,0,1,1.132-.272,1.231,1.231,0,0,1,.815.816A.91.91,0,0,1,1966.455-1770.275Zm34.337,29.807q-.454,5.979-4.892,8.516a.992.992,0,0,1-1.177-.045,1.345,1.345,0,0,1-.59-1,1.161,1.161,0,0,1,.59-1.041q3.35-1.9,3.714-6.433a1.169,1.169,0,0,1,.679-1,1.344,1.344,0,0,1,1.178,0A.868.868,0,0,1,2000.792-1740.467Z" transform="translate(-72.729 -11.618)"/>
      <path id="패스_31" data-name="패스 31" d="M2076.25-1735.684a3.243,3.243,0,0,0-2.039-1.223,8.182,8.182,0,0,0-3.76.317q-4.348,1.27-6.7-.453a4.242,4.242,0,0,1-1.767-2.355,4.411,4.411,0,0,1,.046-2.99,5.6,5.6,0,0,1,2.989-2.537,19.715,19.715,0,0,0,2.809-1.449,8.08,8.08,0,0,0,3.126-6.206,10.923,10.923,0,0,0-2.084-6.885,11.943,11.943,0,0,0-5.572-4.394,11.962,11.962,0,0,0-6.342-.634q-9.061,1.631-11.687,12.322l-.272,1.359q-.182,1.359-.272,3.579t-.09,4.983a30.4,30.4,0,0,0,.589,5.8,40.914,40.914,0,0,0,1.54,5.753,16.437,16.437,0,0,0,2.9,5.074,12.362,12.362,0,0,0,4.666,3.533l.815.453a14.8,14.8,0,0,0,2.446.679q1.541.319,3.443.589a12.027,12.027,0,0,0,4.122-.181,17.317,17.317,0,0,0,4.3-1.495,13.729,13.729,0,0,0,4.123-3.4,21.6,21.6,0,0,0,3.488-5.8l.09-.815a5.864,5.864,0,0,0-.09-1.721A4.836,4.836,0,0,0,2076.25-1735.684Zm-28.856-12.684q-1.134,0-1.132-1.178t1.132-1.177q1.132,0,1.133,1.177T2047.394-1748.368Zm2.311-4.62a1.049,1.049,0,0,1-.815.861,1.218,1.218,0,0,1-1.133-.317,1.112,1.112,0,0,1-.318-1.178,11.877,11.877,0,0,1,7.067-7.973,1.2,1.2,0,0,1,1.224.136,1.192,1.192,0,0,1,.588,1,1.077,1.077,0,0,1-.634.951A9.7,9.7,0,0,0,2049.705-1752.989Zm9.285,3.352a4.136,4.136,0,0,1-3.035-1.268,4.084,4.084,0,0,1-1.268-2.99,4.194,4.194,0,0,1,.588-2.175,4.183,4.183,0,0,1,1.541-1.54,4.21,4.21,0,0,1,2.128-.543,4.124,4.124,0,0,1,3.035,1.223,4.067,4.067,0,0,1,1.223,2.99,4.218,4.218,0,0,1-1.223,3.035A3.991,3.991,0,0,1,2058.99-1749.637Zm15.991,19.117a10.81,10.81,0,0,1-5.979,7.248,1.067,1.067,0,0,1-1.223-.045,1.186,1.186,0,0,1-.589-1,1.077,1.077,0,0,1,.635-.951,9.216,9.216,0,0,0,4.893-5.889,1.047,1.047,0,0,1,.815-.861,1.223,1.223,0,0,1,1.132.317A1.115,1.115,0,0,1,2074.981-1730.52Z" transform="translate(-114.033 -15.585)"/>
      <path id="패스_32" data-name="패스 32" d="M2202.453-1781.983a30.99,30.99,0,0,0-4.122-8.018,27.972,27.972,0,0,0-6.07-6.161,18.8,18.8,0,0,0-7.7-3.4,22.262,22.262,0,0,0-9.1.272,26.268,26.268,0,0,0-9.966,5.164,31,31,0,0,0-7.429,8.878,31.174,31.174,0,0,0-3.986,14.5,42.311,42.311,0,0,0,2.4,16.082,32.187,32.187,0,0,0,8.109,12.91,18.035,18.035,0,0,0,10.872,5.164,29.121,29.121,0,0,0,11.687-.861,21.452,21.452,0,0,0,8.833-4.893,28.152,28.152,0,0,0,5.8-7.927,31.6,31.6,0,0,0,3.035-9.92,47.017,47.017,0,0,0,.181-10.917A41.954,41.954,0,0,0,2202.453-1781.983Zm-42.037,9.694a1.481,1.481,0,0,1-1.087.453,1.479,1.479,0,0,1-1.088-.453,1.479,1.479,0,0,1-.453-1.087,1.485,1.485,0,0,1,.453-1.087,1.483,1.483,0,0,1,1.088-.453,1.486,1.486,0,0,1,1.087.453,1.488,1.488,0,0,1,.453,1.087A1.482,1.482,0,0,1,2160.416-1772.289Zm6.432-15.039q-4.531,5.708-5.436,10.238a1.241,1.241,0,0,1-1.358,1.178.689.689,0,0,1-.272-.09,1.227,1.227,0,0,1-.861-.589,1.438,1.438,0,0,1-.226-1.042,20.276,20.276,0,0,1,1.087-3.126q.724-1.676,1.449-2.99a30.914,30.914,0,0,1,1.631-2.627q.9-1.312,1.268-1.857a5.439,5.439,0,0,1,.635-.815,1.18,1.18,0,0,1,1.9-.227A1.205,1.205,0,0,1,2166.848-1787.328Zm7.792,16.354a4.68,4.68,0,0,1,1.4-3.443,4.631,4.631,0,0,1,3.4-1.4,4.785,4.785,0,0,1,3.443,1.4,4.613,4.613,0,0,1,1.45,3.443,4.61,4.61,0,0,1-1.45,3.442,4.778,4.778,0,0,1-3.443,1.4,4.624,4.624,0,0,1-3.4-1.4A4.677,4.677,0,0,1,2174.64-1770.975Zm10.056,7.293a6.978,6.978,0,0,1-4.259,1.268,11.656,11.656,0,0,1-2.446-.272.816.816,0,0,1-.725-1.087.818.818,0,0,1,1.087-.725q3.352.727,5.255-.634a5.79,5.79,0,0,0,1.993-3.533c.06-.544.392-.784,1-.725a.806.806,0,0,1,.815,1A6.994,6.994,0,0,1,2184.7-1763.682Z" transform="translate(-162.414)"/>
      <path id="패스_33" data-name="패스 33" d="M2280.8-1768.07q-2.175-3.622-5.617-3.442t-5.527,4.167q-2.084,5.075-3.171,8.2a29.861,29.861,0,0,0-1.268,4.3q.36-2.536-1.948-7.248a30.185,30.185,0,0,0-4.394-6.976,5.873,5.873,0,0,0-2.083-1.45,6.973,6.973,0,0,0-4.394-.226,6.634,6.634,0,0,0-3.76,2.31,8.5,8.5,0,0,0-1.541,4.711,16.582,16.582,0,0,0,.181,5.073q1.54,6.978,2.492,10.873a99.052,99.052,0,0,0,3.081,9.784,51.92,51.92,0,0,0,4.756,10.056q5.889,9.513,12.865.181a46.817,46.817,0,0,0,7.248-15.4q.273-1.176,1.359-4.394t1.722-5.481q.633-2.263,1.178-5.255a19.123,19.123,0,0,0,.271-5.481A9.737,9.737,0,0,0,2280.8-1768.07Zm-29.49,12.684c-.756,0-1.132-.392-1.132-1.178s.376-1.177,1.132-1.177,1.132.394,1.132,1.177S2252.067-1755.386,2251.313-1755.386Zm1.494-12.322a9.362,9.362,0,0,0-1.359,7.882,1.158,1.158,0,0,1-.272,1.177,1.178,1.178,0,0,1-1.133.318,1.058,1.058,0,0,1-.86-.861,11.479,11.479,0,0,1,1.631-9.694,1.371,1.371,0,0,1,1.087-.543,1.141,1.141,0,0,1,1,.543A.966.966,0,0,1,2252.807-1767.708Zm16.127,40.5a5.285,5.285,0,0,1-4.711,2.718,1.09,1.09,0,0,1-1.042-.589,1.168,1.168,0,0,1,0-1.178,1.091,1.091,0,0,1,1.042-.588,2.954,2.954,0,0,0,2.718-1.541,1.164,1.164,0,0,1,1.042-.589,1.224,1.224,0,0,1,.951.589A1.05,1.05,0,0,1,2268.934-1727.21Z" transform="translate(-203.527 -12.554)"/>
      <path id="패스_34" data-name="패스 34" d="M2343.771-1735.684a3.242,3.242,0,0,0-2.039-1.223,8.181,8.181,0,0,0-3.76.317q-4.349,1.27-6.7-.453a4.247,4.247,0,0,1-1.767-2.355,4.415,4.415,0,0,1,.046-2.99,5.6,5.6,0,0,1,2.99-2.537,19.73,19.73,0,0,0,2.809-1.449,8.08,8.08,0,0,0,3.125-6.206,10.922,10.922,0,0,0-2.083-6.885,11.941,11.941,0,0,0-5.572-4.394,11.964,11.964,0,0,0-6.342-.634q-9.061,1.631-11.688,12.322l-.272,1.359q-.182,1.359-.272,3.579t-.09,4.983a30.409,30.409,0,0,0,.588,5.8,41,41,0,0,0,1.541,5.753,16.449,16.449,0,0,0,2.9,5.074,12.368,12.368,0,0,0,4.666,3.533l.815.453a14.8,14.8,0,0,0,2.446.679q1.54.319,3.443.589a12.03,12.03,0,0,0,4.122-.181,17.339,17.339,0,0,0,4.3-1.495,13.722,13.722,0,0,0,4.122-3.4,21.576,21.576,0,0,0,3.488-5.8l.09-.815a5.83,5.83,0,0,0-.09-1.721A4.836,4.836,0,0,0,2343.771-1735.684Zm-28.856-12.684c-.756,0-1.132-.392-1.132-1.178s.376-1.177,1.132-1.177,1.132.394,1.132,1.177S2315.669-1748.368,2314.915-1748.368Zm2.31-4.62a1.049,1.049,0,0,1-.815.861,1.22,1.22,0,0,1-1.134-.317,1.112,1.112,0,0,1-.317-1.178,11.875,11.875,0,0,1,7.067-7.973,1.2,1.2,0,0,1,1.223.136,1.193,1.193,0,0,1,.589,1,1.077,1.077,0,0,1-.635.951A9.7,9.7,0,0,0,2317.226-1752.989Zm9.286,3.352a4.138,4.138,0,0,1-3.035-1.268,4.085,4.085,0,0,1-1.268-2.99,4.192,4.192,0,0,1,.589-2.175,4.185,4.185,0,0,1,1.54-1.54,4.212,4.212,0,0,1,2.129-.543,4.123,4.123,0,0,1,3.035,1.223,4.067,4.067,0,0,1,1.224,2.99,4.219,4.219,0,0,1-1.224,3.035A3.989,3.989,0,0,1,2326.512-1749.637Zm15.991,19.117a10.811,10.811,0,0,1-5.98,7.248,1.066,1.066,0,0,1-1.222-.045,1.186,1.186,0,0,1-.59-1,1.078,1.078,0,0,1,.635-.951,9.215,9.215,0,0,0,4.892-5.889,1.047,1.047,0,0,1,.815-.861,1.223,1.223,0,0,1,1.132.317A1.116,1.116,0,0,1,2342.5-1730.52Z" transform="translate(-232.341 -15.585)"/>
      <path id="패스_35" data-name="패스 35" d="M2396-1761.66q-8.245,1-11.144,6.071.453-.724-.272-2.537a30.022,30.022,0,0,0-1.359-2.99,5.962,5.962,0,0,0-5.164-3.08,5.1,5.1,0,0,0-2.446.634q-3.716,2.086-3.534,8.789.361,9.241.363,9.422.632,11.959,3.624,19.116,2.718,6.434,6.795,7.429a5.942,5.942,0,0,0,3.352-.046,3.635,3.635,0,0,0,2.039-1.812,12.528,12.528,0,0,0,1.042-2.808,13.328,13.328,0,0,0,.271-3.624q-.091-2.128-.226-3.715t-.363-3.488q-.227-1.9-.317-2.537,0-.452-.045-1.54a15,15,0,0,0-.135-1.631l-.091-1.359a5.072,5.072,0,0,1,1-3.035,5.308,5.308,0,0,1,3.442-2.22,35.516,35.516,0,0,1,4.938-.5,12.858,12.858,0,0,0,5.662-1.313,5.779,5.779,0,0,0,2.4-4.122,9.93,9.93,0,0,0-.045-4.937Q2404.7-1762.656,2396-1761.66Zm-21.426,12.865q-1.134,0-1.132-1.223t1.132-1.223q1.132,0,1.132,1.223T2374.572-1748.795Zm2.854-11.778q-2.446,2.718-1.9,7.248a.958.958,0,0,1-.452,1.042,1.167,1.167,0,0,1-1.178,0,1.265,1.265,0,0,1-.724-1.042,11.018,11.018,0,0,1,2.536-8.969,1.265,1.265,0,0,1,1.133-.317,1.117,1.117,0,0,1,.815.815A1.208,1.208,0,0,1,2377.425-1760.572Zm10.873,34.518q-.727,3.987-3.262,5.255-.635.271-.815-.453-.363-1.268.544-1.722a4.573,4.573,0,0,0,2.174-3.442,1.345,1.345,0,0,1,.589-.861.474.474,0,0,1,.679.136A1.276,1.276,0,0,1,2388.3-1726.054Z" transform="translate(-258.84 -15.793)"/>
    </g>
  </g>
</svg>
