<svg xmlns="http://www.w3.org/2000/svg" width="519.938" height="145.375" viewBox="0 0 519.938 145.375">
  <g id="그룹_88" data-name="그룹 88" transform="translate(-380 -54.067)">
    <g id="그룹_72" data-name="그룹 72" transform="translate(-1302.581 -59)">
      <g id="그룹_71" data-name="그룹 71" transform="translate(1728.203 224.613)">
        <path id="패스_71" data-name="패스 71" d="M116.265,346.825v25.2H86.5V338.2h29.763Z" transform="translate(-86.502 -338.195)" fill="#840000"/>
        <path id="패스_72" data-name="패스 72" d="M392.457,346.825v25.2H362.694V338.2h29.763Z" transform="translate(41.037 -338.195)" fill="#840000"/>
      </g>
      <path id="패스_73" data-name="패스 73" d="M525.35,222.42H96.657V107.053c0-2.645,6.159-4.808,13.687-4.808h401.32c7.529,0,13.687,2.163,13.687,4.808V222.42Z" transform="translate(1631.546 10.822)" fill="#ff2121"/>
      <path id="패스_74" data-name="패스 74" d="M45.775,188.058H.153l11.508,52.4L.153,292.865H70.737l-24.962-25.2Z" transform="translate(1682.428 -34.423)" fill="#ff7b7b"/>
      <path id="패스_75" data-name="패스 75" d="M387.656,188.058h45.622l-11.508,52.4,11.508,52.4H362.694l24.817-25.2Z" transform="translate(1769.241 -34.423)" fill="#ff7b7b"/>
    </g>
    <text id="최고기록경신_" data-name="최고기록경신!" transform="translate(486 135)" fill="#fff" font-size="70" font-family="KyoboHandwriting2019, 'Kyobo Handwriting \32 019'"><tspan x="0" y="0">최고기록경신!</tspan></text>
  </g>
</svg>
