<svg xmlns="http://www.w3.org/2000/svg" xmlns:xlink="http://www.w3.org/1999/xlink" width="143.843" height="121.746" viewBox="0 0 143.843 121.746">
  <defs>
    <filter id="패스_76" x="0" y="0" width="143.843" height="121.746" filterUnits="userSpaceOnUse">
      <feOffset dy="3" input="SourceAlpha"/>
      <feGaussianBlur stdDeviation="3" result="blur"/>
      <feFlood flood-opacity="0.161"/>
      <feComposite operator="in" in2="blur"/>
      <feComposite in="SourceGraphic"/>
    </filter>
  </defs>
  <g id="그룹_80" data-name="그룹 80" transform="translate(9.993 6.989)">
    <g transform="matrix(1, 0, 0, 1, -9.99, -6.99)" filter="url(#패스_76)">
      <path id="패스_76-2" data-name="패스 76" d="M49.084,42.215q-3.74-6.481-7.99-12.648c-1.918-2.78-3.994-5.589-6.9-7.3-3.535-2.09-7.826-2.3-11.925-2.459-2.227-.087-4.557-.154-6.577.8-2.9,1.366-4.5,4.492-5.668,7.481A67.776,67.776,0,0,0,5.441,49.344C5.2,54.106,5.59,59.25,8.564,62.972c3.4,4.259,9.18,5.527,14.3,7.368a4.119,4.119,0,0,1,1.841,1.07c1.206,1.433.138,3.571-.84,5.17a43.136,43.136,0,0,0-6.1,18.324c-.32,3.35-.2,6.911,1.5,9.814,2.788,4.772,8.858,6.356,14.339,6.96,11.08,1.225,22.282.239,33.326-1.268,17.185-2.349,35.292-6.541,47.4-18.989a55.323,55.323,0,0,0,11.238-17.772c2.793-6.834,4.549-14.35,3.2-21.61a12.039,12.039,0,0,0-2.726-6.161,15.46,15.46,0,0,0-4.521-2.965c-6.646-3.314-14.013-6.721-21.22-4.934-4.393,1.088-8.284,4.051-12.8,4.362a36.008,36.008,0,0,0-.886-26.033c-.957-2.213-2.3-4.475-4.516-5.406-1.958-.822-4.206-.434-6.226.208A27.583,27.583,0,0,0,57.215,36.857a8.5,8.5,0,0,1-.236,2.747C56.1,42.245,52.763,42.946,50,43.218" transform="translate(4.61 -3.45)" fill="#a0efaf" stroke="#1d1d1b" stroke-miterlimit="10" stroke-width="2"/>
    </g>
    <text id="게임방법_보러가기" data-name="게임방법
보러가기" transform="translate(25 54.505)" font-size="23" font-family="KyoboHandwriting2019, 'Kyobo Handwriting \32 019'"><tspan x="0" y="0">게임방법</tspan><tspan x="0" y="29">보러가기</tspan></text>
  </g>
</svg>
