<svg xmlns="http://www.w3.org/2000/svg" width="311.73" height="307.572" viewBox="0 0 311.73 307.572">
  <g id="Group_10" data-name="Group 10" transform="translate(-1056.198 1535.355)">
    <path id="path232" d="M1062.871-1292.483a4.682,4.682,0,0,1-3.6.144,4.682,4.682,0,0,1-2.636-2.457,4.754,4.754,0,0,1,2.3-6.289q82.619-38.442,136.125-96.214,53.429-57.692,77.94-134.769a4.686,4.686,0,0,1,2.313-2.76,4.685,4.685,0,0,1,3.589-.3,4.752,4.752,0,0,1,3.04,5.957q-25.156,79.112-80,138.334-54.773,59.144-139.071,98.357" fill="#465da9" fill-rule="evenodd"/>
    <path id="path234" d="M1317.283-1238.917l1.176-21.288a7.52,7.52,0,0,1,6.436-7.094l20.924-3.086a7.406,7.406,0,0,0,6.119-5.291,7.5,7.5,0,0,0-2.12-7.837l-54.341-50.08a7.513,7.513,0,0,0-5.425-1.976,7.513,7.513,0,0,0-5.225,2.456l-34.97,38.562a7.658,7.658,0,0,0,.477,10.737l54.34,50.08a7.35,7.35,0,0,0,7.929,1.431,7.449,7.449,0,0,0,4.68-6.614" transform="translate(-80.477 -83.874)" fill="#f0393c" fill-rule="evenodd"/>
    <path id="path236" d="M1429.62-1389.144l-3.079-21.087a7.542,7.542,0,0,1,4.9-8.254l19.88-7.256a7.435,7.435,0,0,0,4.943-6.413,7.475,7.475,0,0,0-3.636-7.255l-63.2-38.082a7.522,7.522,0,0,0-5.712-.836,7.522,7.522,0,0,0-4.622,3.459l-26.595,44.843a7.646,7.646,0,0,0,2.607,10.42l63.192,38.09a7.352,7.352,0,0,0,8.053-.2,7.473,7.473,0,0,0,3.272-7.426" transform="translate(-123.949 -23.845)" fill="#f9b317" fill-rule="evenodd"/>
    <path id="path238" d="M1173.886-1122.619l5.831-20.486a7.48,7.48,0,0,1,7.836-5.484l21.081,1.671a7.38,7.38,0,0,0,7.127-3.79,7.5,7.5,0,0,0-.344-8.115l-41.97-60.987a7.522,7.522,0,0,0-4.849-3.136,7.522,7.522,0,0,0-5.643,1.226l-42.581,29.782a7.653,7.653,0,0,0-1.9,10.574l41.971,60.987a7.368,7.368,0,0,0,7.421,3.164,7.407,7.407,0,0,0,6.018-5.407" transform="translate(-25.585 -131.108)" fill="#43bb4e" fill-rule="evenodd"/>
    <path id="path240" d="M1124.748-1020.335a10.429,10.429,0,0,0,10.366-10.451,10.429,10.429,0,0,0-10.366-10.451,10.43,10.43,0,0,0-10.366,10.451,10.43,10.43,0,0,0,10.366,10.451" transform="translate(-24.427 -207.447)" fill="#f9b317" fill-rule="evenodd"/>
    <path id="path242" d="M1341.843-1474.918a6.675,6.675,0,0,0,6.637-6.684,6.682,6.682,0,0,0-6.637-6.691,6.675,6.675,0,0,0-6.63,6.691,6.672,6.672,0,0,0,6.63,6.684" transform="translate(-117.14 -19.758)" fill="#43bb4e" fill-rule="evenodd"/>
    <path id="path244" d="M1368.772-1102.764a2.594,2.594,0,0,1,2.089-2.994,2.564,2.564,0,0,1,1.923.433,2.565,2.565,0,0,1,1.047,1.671l1.934,11.217a2.582,2.582,0,0,1-2.089,2.994,2.576,2.576,0,0,1-1.923-.44,2.577,2.577,0,0,1-1.047-1.672l-1.934-11.209" transform="translate(-131.213 -180.343)" fill="#5b7fc9" fill-rule="evenodd"/>
    <path id="path246" d="M1375.141-1065.848a2.585,2.585,0,0,1,2.089-3,2.583,2.583,0,0,1,2.97,2.112l1.934,11.209a2.589,2.589,0,0,1-2.089,2.994,2.564,2.564,0,0,1-1.924-.433,2.564,2.564,0,0,1-1.047-1.671l-1.933-11.209" transform="translate(-133.885 -195.84)" fill="#5b7fc9" fill-rule="evenodd"/>
    <path id="path248" d="M1348.7-1069.057a2.564,2.564,0,0,1-1.923-.434,2.564,2.564,0,0,1-1.047-1.671,2.579,2.579,0,0,1,.423-1.93,2.578,2.578,0,0,1,1.665-1.063l11.124-1.949a2.573,2.573,0,0,1,1.922.436,2.572,2.572,0,0,1,1.049,1.668,2.593,2.593,0,0,1-2.1,2.994l-11.116,1.949" transform="translate(-121.538 -192.793)" fill="#5b7fc9" fill-rule="evenodd"/>
    <path id="path250" d="M1385.313-1075.472a2.575,2.575,0,0,1-1.923-.44,2.575,2.575,0,0,1-1.047-1.672,2.593,2.593,0,0,1,2.088-2.994l11.124-1.949a2.569,2.569,0,0,1,1.923.435,2.569,2.569,0,0,1,1.048,1.67,2.6,2.6,0,0,1-2.088,3l-11.124,1.949" transform="translate(-136.91 -190.096)" fill="#5b7fc9" fill-rule="evenodd"/>
    <path id="path252" d="M1212.434-1403.343a29.356,29.356,0,0,1,15.947-17.034,2.128,2.128,0,0,0,1.3-2.05,2.117,2.117,0,0,0-1.42-1.973,29.334,29.334,0,0,1-16.9-16.074,2.094,2.094,0,0,0-2.037-1.315,2.1,2.1,0,0,0-1.957,1.431,29.357,29.357,0,0,1-15.948,17.034,2.126,2.126,0,0,0-1.3,2.05,2.13,2.13,0,0,0,1.419,1.973,29.3,29.3,0,0,1,16.9,16.074,2.116,2.116,0,0,0,2.037,1.315,2.1,2.1,0,0,0,1.957-1.431" transform="translate(-56.226 -39.281)" fill="#5b7fc9" fill-rule="evenodd"/>
    <path id="path254" d="M1226.5-1422.62q-1.058,14.992-16.518,17.645a29.344,29.344,0,0,1,6.8,9.8,2.116,2.116,0,0,0,2.037,1.315,2.1,2.1,0,0,0,1.957-1.431,29.357,29.357,0,0,1,15.947-17.034,2.129,2.129,0,0,0,1.3-2.05,2.117,2.117,0,0,0-1.42-1.973,29.153,29.153,0,0,1-10.1-6.273" transform="translate(-64.562 -47.33)" fill="#4267ba" fill-rule="evenodd"/>
    <path id="path256" d="M1547.62-1477.6a29.336,29.336,0,0,1,15.943-17.034,2.135,2.135,0,0,0,1.307-2.05,2.138,2.138,0,0,0-1.423-1.98,29.28,29.28,0,0,1-16.894-16.075,2.132,2.132,0,0,0-2.042-1.315,2.132,2.132,0,0,0-1.957,1.432,29.327,29.327,0,0,1-15.943,17.041,2.136,2.136,0,0,0-1.307,2.05,2.136,2.136,0,0,0,1.423,1.973,29.3,29.3,0,0,1,16.894,16.074,2.109,2.109,0,0,0,2.042,1.315,2.11,2.11,0,0,0,1.957-1.431" transform="translate(-196.945 -8.104)" fill="#6759b2" fill-rule="evenodd"/>
    <path id="path258" d="M1561.689-1496.88q-1.056,14.992-16.516,17.645a29.239,29.239,0,0,1,6.792,9.8,2.11,2.11,0,0,0,2.042,1.315,2.11,2.11,0,0,0,1.957-1.431,29.337,29.337,0,0,1,15.943-17.034,2.135,2.135,0,0,0,1.307-2.05,2.137,2.137,0,0,0-1.423-1.98,29.092,29.092,0,0,1-10.1-6.266" transform="translate(-205.288 -16.153)" fill="#5748a7" fill-rule="evenodd"/>
    <path id="path260" d="M1108.234-1283.044l-2.35,17.289a2.893,2.893,0,0,1-3.249,2.483l-17.15-2.367a2.914,2.914,0,0,1-2.465-3.28l2.349-17.281a2.9,2.9,0,0,1,3.249-2.491l17.15,2.375a2.907,2.907,0,0,1,2.465,3.272" transform="translate(-11.249 -103.547)" fill="#f0393c" fill-rule="evenodd"/>
    <path id="path262" d="M1107.057-1266.334q-11.34,6.057-22.859-3.156l-1.177,8.64a2.914,2.914,0,0,0,2.465,3.28l17.149,2.367a2.891,2.891,0,0,0,3.249-2.483l1.175-8.649" transform="translate(-11.25 -111.619)" fill="#cb3325" fill-rule="evenodd"/>
    <path id="path264" d="M1521.76-1257.717,1534-1245.379a2.928,2.928,0,0,1,0,4.108l-12.237,12.338a2.876,2.876,0,0,1-2.038.847,2.876,2.876,0,0,1-2.039-.847l-12.245-12.338a2.927,2.927,0,0,1,0-4.107l12.246-12.339a2.863,2.863,0,0,1,2.038-.853,2.862,2.862,0,0,1,2.038.853" transform="translate(-188.252 -116.204)" fill="#43bb4e" fill-rule="evenodd"/>
    <path id="path266" d="M1532.924-1246.48q-2.077,12.764-16.314,16.453l6.119,6.166a2.876,2.876,0,0,0,2.038.847,2.876,2.876,0,0,0,2.038-.847l12.237-12.338a2.927,2.927,0,0,0,0-4.108l-6.119-6.173" transform="translate(-193.296 -121.279)" fill="#32a940" fill-rule="evenodd"/>
  </g>
</svg>
