<svg xmlns="http://www.w3.org/2000/svg" xmlns:xlink="http://www.w3.org/1999/xlink" width="143.885" height="121.813" viewBox="0 0 143.885 121.813">
  <defs>
    <linearGradient id="linear-gradient" x1="0.5" x2="0.5" y2="1" gradientUnits="objectBoundingBox">
      <stop offset="0" stop-color="red"/>
      <stop offset="0.167" stop-color="#ffa60c"/>
      <stop offset="0.289" stop-color="#ff0"/>
      <stop offset="0.439" stop-color="#6eff00"/>
      <stop offset="0.552" stop-color="#00dcff"/>
      <stop offset="0.644" stop-color="#00a4ff"/>
      <stop offset="0.741" stop-color="#003cff"/>
      <stop offset="0.837" stop-color="#8000ff"/>
      <stop offset="0.925" stop-color="#ff00c4"/>
      <stop offset="1" stop-color="red"/>
    </linearGradient>
    <filter id="패스_78" x="0" y="0" width="143.885" height="121.813" filterUnits="userSpaceOnUse">
      <feOffset dy="3" input="SourceAlpha"/>
      <feGaussianBlur stdDeviation="3" result="blur"/>
      <feFlood flood-opacity="0.161"/>
      <feComposite operator="in" in2="blur"/>
      <feComposite in="SourceGraphic"/>
    </filter>
  </defs>
  <g id="그룹_83" data-name="그룹 83" transform="translate(-722.915 -470.976)">
    <g id="그룹_78" data-name="그룹 78" transform="translate(733 478)">
      <g id="그룹_77" data-name="그룹 77" transform="translate(0 0)">
        <g transform="matrix(1, 0, 0, 1, -10.08, -7.02)" filter="url(#패스_78)">
          <path id="패스_78-2" data-name="패스 78" d="M42.418,51.478a86.046,86.046,0,0,0-21.4-4.305,7.04,7.04,0,0,0-3.793.457,5.324,5.324,0,0,0-2.19,2.757,18.617,18.617,0,0,0,.123,15.024c1.71,3.776,4.64,7,6.61,10.671,6.344,11.82,2.142,26.9,9.741,38.1,4.366,6.436,12.179,10.568,20.359,12.106s16.711.706,24.822-1.107c19.851-4.435,38.009-14.839,50.914-29.171,3.314-3.679,6.323-7.668,8.032-12.154,3.543-9.3,1.114-19.582-2.529-28.854-1.719-4.377-3.781-8.782-7.346-12.127s-8.944-5.459-13.918-4.288c-4.214.99-9.218,3.976-12.225,1.131a8.341,8.341,0,0,1-1.789-3.545A16.371,16.371,0,0,0,87.735,25.909c-4.942-1.594-11.2-.049-13.746,4.1" transform="translate(-3.43 -18.27)" stroke="#000" stroke-miterlimit="10" stroke-width="2" fill="url(#linear-gradient)"/>
        </g>
      </g>
      <text id="다시하기" transform="translate(28.852 60.291)" font-size="23" font-family="KyoboHandwriting2019, 'Kyobo Handwriting \32 019'"><tspan x="0" y="0">다시하기</tspan></text>
    </g>
    <path id="패스_80" data-name="패스 80" d="M794.583,482.75,762,505" transform="translate(-0.667 -0.333)" fill="none" stroke="#000" stroke-width="2"/>
  </g>
</svg>
