<svg xmlns="http://www.w3.org/2000/svg" width="90" height="90" viewBox="0 0 90 90">
  <g id="half-star-svgrepo-com" transform="translate(0 0)">
    <g id="그룹_16" data-name="그룹 16" transform="translate(0 0)">
      <g id="그룹_15" data-name="그룹 15">
        <g id="그룹_14" data-name="그룹 14">
          <circle id="타원_24" data-name="타원 24" cx="45" cy="45" r="45" transform="translate(0 0)" fill="#79302a"/>
        </g>
      </g>
    </g>
    <path id="패스_57" data-name="패스 57" d="M133.091,83.74l-17.545-2.27-11.568-12.3-19.17,51.681,17.2,17.2c.686.031,1.375.049,2.069.049A44.937,44.937,0,0,0,148.6,99.25Z" transform="translate(-59.009 -48.099)" fill="#63211e"/>
    <path id="패스_58" data-name="패스 58" d="M108.549,73.694a5.841,5.841,0,0,0-4.458-3.932L90.2,67.106,83.382,54.714a5.844,5.844,0,0,0-10.233,0L66.331,67.106,52.44,69.762a5.841,5.841,0,0,0-3.162,9.733l9.677,10.314-1.767,14.033a5.84,5.84,0,0,0,8.279,6.016l12.8-6.017,12.8,6.017a5.84,5.84,0,0,0,8.278-6.015L97.576,89.809,107.252,79.5A5.84,5.84,0,0,0,108.549,73.694ZM92.443,85.529a5.821,5.821,0,0,0-1.535,4.726l1.627,12.922L80.749,97.635a5.868,5.868,0,0,0-2.585-.548V59.439l.1-.183,6.278,11.41a5.822,5.822,0,0,0,4.02,2.921l12.791,2.445Z" transform="translate(-33.265 -36.053)" fill="#ffcd02"/>
  </g>
</svg>
